# xmcd
#
# Track frame offsets: 
#        150
#        12582
#        23619
#        33511
#        46282
#        59394
#        72577
#        84935
#        96472
#        108480
#        119597
#        132199
#        143241
#        155175
#        167752
#        179864
#        190373
#        200685
#        213040
#        226815
#        238813
#        247382
#        258144
#        268508
#        286934
#
# Disc length: 4020 seconds
#
# Revision: 3
# Processed by: cddbd v1.5.2PL0 Copyright (c) Steve Scherf et al.
# Submitted via: ExactAudioCopyFreeDBPlugin 1.0
#
DISCID=7e0fb219
DTITLE=Various Artist - Gettin' Funky:  The Birth of New Orleans R&B 
DTITLE=[Proper Records]
DYEAR=2001
DGENRE=Rhythm and Blues
TTITLE0=Chubby Newsome - Hip Shakin' Mama
TTITLE1=Chubby Newsome - Chubby's Confession
TTITLE2=Chubby Newsome - Back Bitin' Woman
TTITLE3=Chubby Newsome - Bedroom Blues
TTITLE4=Chubby Newsome - Close to Train Time
TTITLE5=Chubby Newsome - New Orleans Lover Man
TTITLE6=Alma Mondy - Miss Lollipop's Confession
TTITLE7=Alma Mondy - Baby Get Wise
TTITLE8=Alma Mondy - Streetwalkin' Daddy
TTITLE9=Alma Mondy - A Job for a Jockey
TTITLE10=George Miller and His Mid-Driffs - Boogie's the Thing
TTITLE11=Little Joe Gaines - She Won't Leave No More
TTITLE12=Hosie Dwine Craven - Mercury Boogie
TTITLE13=James Locks - Blazer Boy Blues
TTITLE14=James Locks - New Orleans Woman Blues
TTITLE15=Erline Harris - Jump and Shout
TTITLE16=Erline Harris - I Never Missed My Baby
TTITLE17=The Johnson Brothers Combo - Mellow Woman Blues
TTITLE18=Tommy Ridgley - Shrewsbury Blues
TTITLE19=Jewel King - Don't Marry Too Soon
TTITLE20=Jewel King - 3 x 7 =21
TTITLE21=Jewel King - I'll Get By
TTITLE22=Jewel King - I Broke My Mother's Rule
TTITLE23=Joe "Google Eyes" August - I Cried
TTITLE24=Joe "Google Eyes" August - Just to Be Home with You
EXTD=YEAR: 1948
EXTT0=
EXTT1=
EXTT2=
EXTT3=
EXTT4=
EXTT5=
EXTT6=
EXTT7=
EXTT8=
EXTT9=
EXTT10=
EXTT11=
EXTT12=
EXTT13=
EXTT14=
EXTT15=
EXTT16=
EXTT17=
EXTT18=
EXTT19=
EXTT20=
EXTT21=
EXTT22=
EXTT23=
EXTT24=
PLAYORDER=
